<svg width="40" height="41" viewBox="0 0 40 41" fill="none" xmlns="http://www.w3.org/2000/svg">
<path id="Vector" d="M11.6 0.5H28.4C34.8 0.5 40 5.7 40 12.1V28.9C40 31.9765 38.7779 34.927 36.6024 37.1024C34.427 39.2779 31.4765 40.5 28.4 40.5H11.6C5.2 40.5 0 35.3 0 28.9V12.1C0 9.02349 1.22214 6.07298 3.39756 3.89756C5.57298 1.72214 8.52349 0.5 11.6 0.5ZM11.2 4.5C9.29044 4.5 7.45909 5.25857 6.10883 6.60883C4.75857 7.95909 4 9.79044 4 11.7V29.3C4 33.28 7.22 36.5 11.2 36.5H28.8C30.7096 36.5 32.5409 35.7414 33.8912 34.3912C35.2414 33.0409 36 31.2096 36 29.3V11.7C36 7.72 32.78 4.5 28.8 4.5H11.2ZM30.5 7.5C31.163 7.5 31.7989 7.76339 32.2678 8.23223C32.7366 8.70107 33 9.33696 33 10C33 10.663 32.7366 11.2989 32.2678 11.7678C31.7989 12.2366 31.163 12.5 30.5 12.5C29.837 12.5 29.2011 12.2366 28.7322 11.7678C28.2634 11.2989 28 10.663 28 10C28 9.33696 28.2634 8.70107 28.7322 8.23223C29.2011 7.76339 29.837 7.5 30.5 7.5ZM20 10.5C22.6522 10.5 25.1957 11.5536 27.0711 13.4289C28.9464 15.3043 30 17.8478 30 20.5C30 23.1522 28.9464 25.6957 27.0711 27.5711C25.1957 29.4464 22.6522 30.5 20 30.5C17.3478 30.5 14.8043 29.4464 12.9289 27.5711C11.0536 25.6957 10 23.1522 10 20.5C10 17.8478 11.0536 15.3043 12.9289 13.4289C14.8043 11.5536 17.3478 10.5 20 10.5ZM20 14.5C18.4087 14.5 16.8826 15.1321 15.7574 16.2574C14.6321 17.3826 14 18.9087 14 20.5C14 22.0913 14.6321 23.6174 15.7574 24.7426C16.8826 25.8679 18.4087 26.5 20 26.5C21.5913 26.5 23.1174 25.8679 24.2426 24.7426C25.3679 23.6174 26 22.0913 26 20.5C26 18.9087 25.3679 17.3826 24.2426 16.2574C23.1174 15.1321 21.5913 14.5 20 14.5Z" fill="white"/>
</svg>
