<svg width="39" height="31" viewBox="0 0 39 31" fill="none" xmlns="http://www.w3.org/2000/svg">
<path d="M24.9901 0.5C24.609 1.18666 24.2668 1.897 23.9557 2.62313C21.0001 2.17325 17.9902 2.17325 15.0268 2.62313C14.7235 1.897 14.3735 1.18666 13.9924 0.5C11.2158 0.981469 8.50909 1.82597 5.94245 3.01775C0.855795 10.6658 -0.520864 18.1164 0.163585 25.4645C3.14245 27.6981 6.47911 29.4029 10.0335 30.4921C10.8346 29.4029 11.5424 28.2427 12.1491 27.0351C10.998 26.601 9.88575 26.0564 8.82021 25.425C9.1002 25.2198 9.37243 25.0067 9.63686 24.8015C15.8824 27.7849 23.1157 27.7849 29.369 24.8015C29.6334 25.0225 29.9057 25.2356 30.1856 25.425C29.1201 26.0643 28.0079 26.601 26.849 27.043C27.4557 28.2506 28.1634 29.4108 28.9646 30.5C32.5189 29.4108 35.8555 27.7139 38.8346 25.4803C39.6433 16.9562 37.4501 9.56866 33.0399 3.02566C30.4812 1.83387 27.7746 0.989344 24.9979 0.515781L24.9901 0.5ZM13.0202 20.942C11.0991 20.942 9.50466 19.174 9.50466 16.9878C9.50466 14.8015 11.0369 13.0257 13.0124 13.0257C14.988 13.0257 16.559 14.8094 16.5279 16.9878C16.4968 19.1662 14.9802 20.942 13.0202 20.942ZM25.9779 20.942C24.049 20.942 22.4701 19.174 22.4701 16.9878C22.4701 14.8015 24.0024 13.0257 25.9779 13.0257C27.9535 13.0257 29.5168 14.8094 29.4856 16.9878C29.4545 19.1662 27.9379 20.942 25.9779 20.942Z" fill="white"/>
</svg>
