<svg width="942" height="788" viewBox="0 0 942 788" fill="none" xmlns="http://www.w3.org/2000/svg">
<rect x="99" y="81" width="5" height="5" fill="#9987D0" fill-opacity="0.35"/>
<rect x="99" y="167" width="5" height="5" fill="#9987D0" fill-opacity="0.35"/>
<rect x="2" width="5" height="5" fill="#9987D0" fill-opacity="0.35"/>
<rect x="2" y="625" width="5" height="5" fill="#9987D0" fill-opacity="0.35"/>
<rect x="446" y="529" width="5" height="5" fill="#9987D0" fill-opacity="0.35"/>
<rect y="244" width="5" height="5" fill="#9987D0" fill-opacity="0.35"/>
<rect x="251" width="5" height="5" fill="#9987D0" fill-opacity="0.35"/>
<rect x="251" y="9" width="5" height="5" fill="#9987D0" fill-opacity="0.35"/>
<rect x="273" y="9" width="5" height="5" fill="#9987D0" fill-opacity="0.35"/>
<rect x="273" width="5" height="5" fill="#9987D0" fill-opacity="0.35"/>
<rect x="915" y="638" width="5" height="5" fill="#9987D0" fill-opacity="0.35"/>
<rect x="915" y="647" width="5" height="5" fill="#9987D0" fill-opacity="0.35"/>
<rect x="937" y="647" width="5" height="5" fill="#9987D0" fill-opacity="0.35"/>
<rect x="937" y="638" width="5" height="5" fill="#9987D0" fill-opacity="0.35"/>
<rect x="446" y="627" width="5" height="5" fill="#9987D0" fill-opacity="0.35"/>
<rect x="446" y="618" width="5" height="5" fill="#9987D0" fill-opacity="0.35"/>
<rect x="919" y="770" width="18" height="18" fill="#9987D0" fill-opacity="0.35"/>
<rect x="692" width="18" height="18" fill="#9987D0" fill-opacity="0.35"/>
<path d="M0 520H18L27 529L18 538H0V520Z" fill="#9987D0" fill-opacity="0.35"/>
</svg>
