<svg width="40" height="51" viewBox="0 0 40 51" fill="none" xmlns="http://www.w3.org/2000/svg">
<g id="mdi:linkedin">
<path id="Vector" d="M35.375 6.375C36.5022 6.375 37.5832 6.82277 38.3802 7.6198C39.1772 8.41683 39.625 9.49783 39.625 10.625V40.375C39.625 41.5022 39.1772 42.5832 38.3802 43.3802C37.5832 44.1772 36.5022 44.625 35.375 44.625H5.625C4.49783 44.625 3.41683 44.1772 2.6198 43.3802C1.82277 42.5832 1.375 41.5022 1.375 40.375V10.625C1.375 9.49783 1.82277 8.41683 2.6198 7.6198C3.41683 6.82277 4.49783 6.375 5.625 6.375H35.375ZM34.3125 39.3125V28.05C34.3125 26.2127 33.5826 24.4507 32.2835 23.1515C30.9843 21.8524 29.2223 21.1225 27.385 21.1225C25.5787 21.1225 23.475 22.2275 22.455 23.885V21.5262H16.5262V39.3125H22.455V28.8363C22.455 27.2 23.7725 25.8612 25.4088 25.8612C26.1978 25.8612 26.9545 26.1747 27.5124 26.7326C28.0703 27.2905 28.3838 28.0472 28.3838 28.8363V39.3125H34.3125ZM9.62 18.19C10.5668 18.19 11.4749 17.8139 12.1444 17.1444C12.8139 16.4749 13.19 15.5668 13.19 14.62C13.19 12.6438 11.5963 11.0287 9.62 11.0287C8.66754 11.0287 7.75409 11.4071 7.0806 12.0806C6.40711 12.7541 6.02875 13.6675 6.02875 14.62C6.02875 16.5963 7.64375 18.19 9.62 18.19ZM12.5738 39.3125V21.5262H6.6875V39.3125H12.5738Z" fill="white"/>
</g>
</svg>
