<svg width="49" height="49" viewBox="0 0 49 49" fill="none" xmlns="http://www.w3.org/2000/svg">
<g id="ic:round-mail">
<path id="Vector" d="M40.8335 8.16602H8.16683C5.921 8.16602 4.0835 10.0035 4.0835 12.2493V36.7493C4.0835 38.9952 5.921 40.8327 8.16683 40.8327H40.8335C43.0793 40.8327 44.9168 38.9952 44.9168 36.7493V12.2493C44.9168 10.0035 43.0793 8.16602 40.8335 8.16602ZM40.0168 16.8431L26.6643 25.1935C25.3372 26.0306 23.6631 26.0306 22.336 25.1935L8.9835 16.8431C8.77877 16.7282 8.5995 16.5729 8.45652 16.3867C8.31354 16.2005 8.20983 15.9872 8.15167 15.7597C8.09351 15.5323 8.08211 15.2954 8.11815 15.0634C8.15419 14.8314 8.23693 14.6091 8.36136 14.41C8.48579 14.211 8.64932 14.0392 8.84206 13.9051C9.0348 13.7711 9.25273 13.6775 9.48267 13.6301C9.71262 13.5827 9.94978 13.5825 10.1798 13.6294C10.4099 13.6763 10.628 13.7694 10.821 13.9031L24.5002 22.4577L38.1793 13.9031C38.3723 13.7694 38.5905 13.6763 38.8205 13.6294C39.0505 13.5825 39.2877 13.5827 39.5177 13.6301C39.7476 13.6775 39.9655 13.7711 40.1583 13.9051C40.351 14.0392 40.5145 14.211 40.639 14.41C40.7634 14.6091 40.8461 14.8314 40.8822 15.0634C40.9182 15.2954 40.9068 15.5323 40.8487 15.7597C40.7905 15.9872 40.6868 16.2005 40.5438 16.3867C40.4008 16.5729 40.2215 16.7282 40.0168 16.8431Z" fill="white"/>
</g>
</svg>
