<svg width="194" height="75" viewBox="0 0 194 75" fill="none" xmlns="http://www.w3.org/2000/svg">
<path d="M6.39844 24.1406C4.61719 24.1406 3.23438 23.6953 2.25 22.8047C1.28125 21.9141 0.734375 20.6875 0.609375 19.125V18.8438H3.58594V19.125C3.71094 19.9062 4 20.4922 4.45312 20.8828C4.92188 21.2578 5.625 21.4453 6.5625 21.4453C7.45312 21.4453 8.11719 21.2656 8.55469 20.9062C8.99219 20.5312 9.21094 19.9844 9.21094 19.2656C9.21094 18.6094 9.03906 18.1094 8.69531 17.7656C8.35156 17.4062 7.78906 17.1719 7.00781 17.0625L5.4375 16.8047C4.4375 16.6328 3.60156 16.3516 2.92969 15.9609C2.27344 15.5703 1.78125 15.0625 1.45312 14.4375C1.125 13.7969 0.960938 13.0469 0.960938 12.1875C0.960938 11.1562 1.1875 10.2656 1.64062 9.51562C2.10938 8.76562 2.75781 8.19531 3.58594 7.80469C4.42969 7.39844 5.41406 7.19531 6.53906 7.19531C8.17969 7.19531 9.47656 7.63281 10.4297 8.50781C11.3828 9.36719 11.9141 10.5781 12.0234 12.1406V12.6094H9V12.1406C8.95312 11.3594 8.71875 10.7812 8.29688 10.4062C7.875 10.0312 7.26562 9.84375 6.46875 9.84375C5.65625 9.84375 5.03906 10.0312 4.61719 10.4062C4.21094 10.7812 4.00781 11.2969 4.00781 11.9531C4.00781 12.5312 4.19531 12.9922 4.57031 13.3359C4.94531 13.6641 5.51562 13.8984 6.28125 14.0391L8.03906 14.3438C9.47656 14.5938 10.5469 15.1094 11.25 15.8906C11.9531 16.6719 12.3047 17.7109 12.3047 19.0078C12.3047 20.6641 11.7734 21.9375 10.7109 22.8281C9.64844 23.7031 8.21094 24.1406 6.39844 24.1406ZM20.3672 24.1875C18.3672 24.1875 16.8594 23.6406 15.8438 22.5469C14.8438 21.4531 14.3438 19.8047 14.3438 17.6016V13.8047C14.3438 11.6016 14.8438 9.95312 15.8438 8.85938C16.8594 7.75 18.3828 7.19531 20.4141 7.19531C21.6172 7.19531 22.6641 7.41406 23.5547 7.85156C24.4453 8.27344 25.1328 8.88281 25.6172 9.67969C26.1016 10.4766 26.3438 11.4141 26.3438 12.4922V12.6094H23.2031V12.5156C23.2031 11.7812 22.9531 11.1719 22.4531 10.6875C21.9688 10.2031 21.2812 9.96094 20.3906 9.96094C19.3906 9.96094 18.6562 10.2734 18.1875 10.8984C17.7344 11.5078 17.5078 12.5312 17.5078 13.9688V17.5547C17.5078 18.8828 17.7422 19.8516 18.2109 20.4609C18.6953 21.0703 19.4375 21.375 20.4375 21.375C21.0312 21.375 21.5312 21.2734 21.9375 21.0703C22.3594 20.8516 22.6719 20.5625 22.875 20.2031C23.0938 19.8438 23.2031 19.4531 23.2031 19.0312V18.8438H26.2969V19.0078C26.2969 20.0234 26.0781 20.9219 25.6406 21.7031C25.2031 22.4844 24.5391 23.0938 23.6484 23.5312C22.7734 23.9688 21.6797 24.1875 20.3672 24.1875ZM28.9453 24V7.42969H35.25C36.3281 7.42969 37.2656 7.63281 38.0625 8.03906C38.8594 8.42969 39.4688 9 39.8906 9.75C40.3281 10.4844 40.5469 11.3594 40.5469 12.375C40.5469 13.4531 40.2891 14.375 39.7734 15.1406C39.2734 15.8906 38.5547 16.4453 37.6172 16.8047L41.2266 24H37.5938L34.4531 17.2734H32.1094V24H28.9453ZM32.1094 14.6719H35.0859C35.8203 14.6719 36.3906 14.4688 36.7969 14.0625C37.2031 13.6562 37.4062 13.0938 37.4062 12.375C37.4062 11.6875 37.2031 11.1484 36.7969 10.7578C36.3906 10.3672 35.8203 10.1719 35.0859 10.1719H32.1094V14.6719ZM49.0547 24.1875C47.0703 24.1875 45.5859 23.6406 44.6016 22.5469C43.6172 21.4531 43.125 19.8047 43.125 17.6016V13.8047C43.125 11.6016 43.625 9.95312 44.625 8.85938C45.6406 7.75 47.1484 7.19531 49.1484 7.19531C50.3828 7.19531 51.4453 7.42187 52.3359 7.875C53.2266 8.32812 53.9141 9.03906 54.3984 10.0078C54.8828 10.9766 55.125 12.2422 55.125 13.8047V17.6016C55.125 19.1641 54.875 20.4297 54.375 21.3984C53.875 22.3672 53.1719 23.0781 52.2656 23.5312C51.3594 23.9688 50.2891 24.1875 49.0547 24.1875ZM46.2891 17.5547C46.2891 18.9141 46.5156 19.8906 46.9688 20.4844C47.4219 21.0781 48.1484 21.375 49.1484 21.375C50.1172 21.375 50.8281 21.0703 51.2812 20.4609C51.75 19.8516 51.9844 18.8828 51.9844 17.5547V13.9688C51.9844 12.5625 51.75 11.5469 51.2812 10.9219C50.8281 10.2812 50.1172 9.96094 49.1484 9.96094C48.1484 9.96094 47.4219 10.2734 46.9688 10.8984C46.5156 11.5078 46.2891 12.5312 46.2891 13.9688V17.5547ZM57.7266 24V7.42969H60.8906V21.2578H68.1328V24H57.7266ZM70.1016 24V7.42969H73.2656V21.2578H80.5078V24H70.1016ZM87.6797 24V7.42969H98.6719V10.1719H90.8438V14.2969H97.6172V17.0391H90.8438V24H87.6797ZM106.734 24.1875C104.75 24.1875 103.266 23.6406 102.281 22.5469C101.297 21.4531 100.805 19.8047 100.805 17.6016V13.8047C100.805 11.6016 101.305 9.95312 102.305 8.85938C103.32 7.75 104.828 7.19531 106.828 7.19531C108.062 7.19531 109.125 7.42187 110.016 7.875C110.906 8.32812 111.594 9.03906 112.078 10.0078C112.562 10.9766 112.805 12.2422 112.805 13.8047V17.6016C112.805 19.1641 112.555 20.4297 112.055 21.3984C111.555 22.3672 110.852 23.0781 109.945 23.5312C109.039 23.9688 107.969 24.1875 106.734 24.1875ZM103.969 17.5547C103.969 18.9141 104.195 19.8906 104.648 20.4844C105.102 21.0781 105.828 21.375 106.828 21.375C107.797 21.375 108.508 21.0703 108.961 20.4609C109.43 19.8516 109.664 18.8828 109.664 17.5547V13.9688C109.664 12.5625 109.43 11.5469 108.961 10.9219C108.508 10.2812 107.797 9.96094 106.828 9.96094C105.828 9.96094 105.102 10.2734 104.648 10.8984C104.195 11.5078 103.969 12.5312 103.969 13.9688V17.5547ZM115.406 24V7.42969H121.711C122.789 7.42969 123.727 7.63281 124.523 8.03906C125.32 8.42969 125.93 9 126.352 9.75C126.789 10.4844 127.008 11.3594 127.008 12.375C127.008 13.4531 126.75 14.375 126.234 15.1406C125.734 15.8906 125.016 16.4453 124.078 16.8047L127.688 24H124.055L120.914 17.2734H118.57V24H115.406ZM118.57 14.6719H121.547C122.281 14.6719 122.852 14.4688 123.258 14.0625C123.664 13.6562 123.867 13.0938 123.867 12.375C123.867 11.6875 123.664 11.1484 123.258 10.7578C122.852 10.3672 122.281 10.1719 121.547 10.1719H118.57V14.6719ZM135.258 24V7.42969H138.422L142.664 16.5938L146.859 7.42969H150V24H146.859V14.1797L143.719 20.8125H141.609L138.422 14.1094V24H135.258ZM158.789 24.1875C156.805 24.1875 155.32 23.6406 154.336 22.5469C153.352 21.4531 152.859 19.8047 152.859 17.6016V13.8047C152.859 11.6016 153.359 9.95312 154.359 8.85938C155.375 7.75 156.883 7.19531 158.883 7.19531C160.117 7.19531 161.18 7.42187 162.07 7.875C162.961 8.32812 163.648 9.03906 164.133 10.0078C164.617 10.9766 164.859 12.2422 164.859 13.8047V17.6016C164.859 19.1641 164.609 20.4297 164.109 21.3984C163.609 22.3672 162.906 23.0781 162 23.5312C161.094 23.9688 160.023 24.1875 158.789 24.1875ZM156.023 17.5547C156.023 18.9141 156.25 19.8906 156.703 20.4844C157.156 21.0781 157.883 21.375 158.883 21.375C159.852 21.375 160.562 21.0703 161.016 20.4609C161.484 19.8516 161.719 18.8828 161.719 17.5547V13.9688C161.719 12.5625 161.484 11.5469 161.016 10.9219C160.562 10.2812 159.852 9.96094 158.883 9.96094C157.883 9.96094 157.156 10.2734 156.703 10.8984C156.25 11.5078 156.023 12.5312 156.023 13.9688V17.5547ZM167.461 24V7.42969H173.766C174.844 7.42969 175.781 7.63281 176.578 8.03906C177.375 8.42969 177.984 9 178.406 9.75C178.844 10.4844 179.062 11.3594 179.062 12.375C179.062 13.4531 178.805 14.375 178.289 15.1406C177.789 15.8906 177.07 16.4453 176.133 16.8047L179.742 24H176.109L172.969 17.2734H170.625V24H167.461ZM170.625 14.6719H173.602C174.336 14.6719 174.906 14.4688 175.312 14.0625C175.719 13.6562 175.922 13.0938 175.922 12.375C175.922 11.6875 175.719 11.1484 175.312 10.7578C174.906 10.3672 174.336 10.1719 173.602 10.1719H170.625V14.6719ZM181.852 24V7.42969H192.844V10.1719H185.016V14.2734H191.766V17.0156H185.016V21.2578H192.844V24H181.852Z" fill="black"/>
<path d="M78.7339 52.2656L97 70.5317L115.266 52.2656" stroke="black" stroke-opacity="0.8" stroke-width="5"/>
</svg>
